<svg xmlns="http://www.w3.org/2000/svg" width="20" height="20" viewBox="0 0 14.15 9.88">
  <path id="Контур_1626" data-name="Контур 1626" d="M29840.9,1323.64c0,.11-.1.21-.1.29s.1.18.1.3a11.076,11.076,0,0,0,1,1.33,6.194,6.194,0,0,0,4.4,1.9,6,6,0,0,0,4.4-1.9,5.628,5.628,0,0,0,1-1.33c.1-.12.1-.22.2-.3-.1-.08-.1-.18-.2-.29a5.453,5.453,0,0,0-1-1.34,6,6,0,0,0-4.4-1.9,6.193,6.193,0,0,0-4.4,1.9A10.336,10.336,0,0,0,29840.9,1323.64Zm12.4.57-.6-.28.6.28a.562.562,0,0,0,0-.56l-.6.28.6-.28h0v-.06c0-.04-.1-.09-.1-.16a2.775,2.775,0,0,1-.3-.53,5.7,5.7,0,0,0-1.2-1.58,7.421,7.421,0,0,0-10.8,0,19.221,19.221,0,0,0-1.2,1.58,2.775,2.775,0,0,1-.3.53c0,.07,0,.12-.1.16v.06h0l.7.28-.7-.28a.553.553,0,0,0,0,.56l.7-.28-.7.28h0v.07c.1.03.1.09.1.15a2.774,2.774,0,0,1,.3.53,19.221,19.221,0,0,0,1.2,1.58,7.421,7.421,0,0,0,10.8,0,5.7,5.7,0,0,0,1.2-1.58,2.774,2.774,0,0,1,.3-.53c0-.06.1-.12.1-.15v-.07Zm-7,1.13a1.41,1.41,0,1,1,1.4-1.41A1.387,1.387,0,0,1,29846.3,1325.34Zm-2.8-1.41a2.839,2.839,0,0,1,2.8-2.82,2.82,2.82,0,0,1,0,5.64A2.839,2.839,0,0,1,29843.5,1323.93Z" transform="translate(-29839.225 -1318.99)" fill="#fff" opacity="0.5" fill-rule="evenodd"/>
</svg>
