<svg xmlns="http://www.w3.org/2000/svg" xmlns:xlink="http://www.w3.org/1999/xlink" width="15.413" height="20.22" viewBox="0 0 15.413 20.22">
  <defs>
    <linearGradient id="linear-gradient" y1="0.5" x2="1" y2="0.556" gradientUnits="objectBoundingBox">
      <stop offset="0" stop-color="#ea443a"/>
      <stop offset="0.498" stop-color="#f38b3e"/>
      <stop offset="1" stop-color="#f8aa2f"/>
    </linearGradient>
  </defs>
  <g id="Group_21623" data-name="Group 21623" transform="translate(-405.779 -67.326)">
    <path id="Path_39444" data-name="Path 39444" d="M413.073,67.826h.826c.141.025.281.051.422.074a4.768,4.768,0,0,1,3.927,4.195c.072.877.032,1.762.043,2.644,0,.092,0,.184,0,.294h.5a1.8,1.8,0,0,1,1.9,1.893q0,4.11,0,8.22a1.8,1.8,0,0,1-1.9,1.9h-3.378q-3.65,0-7.3,0a1.789,1.789,0,0,1-1.836-1.766q-.013-4.241,0-8.483a1.762,1.762,0,0,1,1.488-1.725,9.029,9.029,0,0,1,.91-.052c0-.068,0-.136,0-.2,0-.757-.006-1.514,0-2.271a4.785,4.785,0,0,1,3.262-4.455C412.311,67.968,412.7,67.912,413.073,67.826Zm3.613,7.2c0-.635.005-1.253,0-1.87a7.958,7.958,0,0,0-.05-1.084,3.2,3.2,0,0,0-6.347.6c0,.725,0,1.451,0,2.176,0,.059.005.118.008.18Zm-3.2,3.207a1.614,1.614,0,0,0-1.518,1.106,1.565,1.565,0,0,0,.568,1.767.344.344,0,0,1,.159.324c-.008.513,0,1.025,0,1.538a1.128,1.128,0,0,0,.032.3.793.793,0,0,0,.842.572.779.779,0,0,0,.715-.762c.011-.544.009-1.088,0-1.632a.361.361,0,0,1,.165-.34,1.562,1.562,0,0,0,.559-1.77A1.607,1.607,0,0,0,413.482,78.235Z" stroke="rgba(0,0,0,0)" stroke-width="1" fill="url(#linear-gradient)"/>
  </g>
</svg>
