<svg xmlns="http://www.w3.org/2000/svg" xmlns:xlink="http://www.w3.org/1999/xlink" width="19.334" height="13.596" viewBox="0 0 19.334 13.596">
  <defs>
    <linearGradient id="linear-gradient" y1="0.5" x2="1" y2="0.556" gradientUnits="objectBoundingBox">
      <stop offset="0" stop-color="#ea443a"/>
      <stop offset="0.498" stop-color="#f38b3e"/>
      <stop offset="1" stop-color="#f8aa2f"/>
    </linearGradient>
  </defs>
  <g id="Group_21621" data-name="Group 21621" transform="translate(-295.38 -359.171)">
    <path id="Path_39439" data-name="Path 39439" d="M573.074,419.516a1.086,1.086,0,0,1-.142-.064q-2.946-1.861-5.891-3.724c-.04-.025-.078-.053-.139-.094l6.171-4.061Z" transform="translate(-258.877 -49.575)" stroke="rgba(0,0,0,0)" stroke-width="1" fill="url(#linear-gradient)"/>
    <path id="Path_39440" data-name="Path 39440" d="M306.146,359.671h7.924a1.141,1.141,0,0,1,1.145.773.219.219,0,0,1-.1.3q-3.722,2.44-7.435,4.893c-.473.311-.947.62-1.416.936a.191.191,0,0,1-.251,0q-4.438-2.93-8.881-5.851a.175.175,0,0,1-.087-.23,1.136,1.136,0,0,1,.98-.82c.083-.008.167-.007.25-.007Z" transform="translate(-1.101 0)" stroke="rgba(0,0,0,0)" stroke-width="1" fill="url(#linear-gradient)"/>
    <path id="Path_39441" data-name="Path 39441" d="M315.375,522.862a1.123,1.123,0,0,1-1.171.962q-7.944,0-15.888,0a1.14,1.14,0,0,1-1.133-.766.211.211,0,0,1,.1-.3c1.369-.857,2.732-1.723,4.1-2.586.932-.589,1.865-1.177,2.793-1.772a.227.227,0,0,1,.3.006c.448.305.908.594,1.354.9a.683.683,0,0,0,.857,0c.462-.317.935-.617,1.4-.929a.171.171,0,0,1,.221,0q3.5,2.216,6.994,4.427C315.323,522.822,315.346,522.84,315.375,522.862Z" transform="translate(-1.221 -151.557)" stroke="rgba(0,0,0,0)" stroke-width="1" fill="url(#linear-gradient)"/>
    <path id="Path_39442" data-name="Path 39442" d="M295.88,419.53v-7.969l6.172,4.066Z" transform="translate(0 -49.564)" stroke="rgba(0,0,0,0)" stroke-width="1" fill="url(#linear-gradient)"/>
  </g>
</svg>
