<svg xmlns="http://www.w3.org/2000/svg" width="19.201" height="15.361" viewBox="0 0 19.201 15.361">
  <path id="Icon_awesome-eye-slash" data-name="Icon awesome-eye-slash" d="M9.6,12A4.3,4.3,0,0,1,5.313,8.007L2.166,5.575a10,10,0,0,0-1.1,1.668.971.971,0,0,0,0,.876A9.623,9.623,0,0,0,9.6,13.441a9.319,9.319,0,0,0,2.337-.314l-1.557-1.2A4.324,4.324,0,0,1,9.6,12Zm9.415,1.743L15.7,11.18a9.938,9.938,0,0,0,2.438-3.062.971.971,0,0,0,0-.876A9.623,9.623,0,0,0,9.6,1.92a9.245,9.245,0,0,0-4.42,1.131L1.364.1A.48.48,0,0,0,.69.185L.1.943a.48.48,0,0,0,.084.674L17.837,15.26a.48.48,0,0,0,.674-.084l.589-.758a.48.48,0,0,0-.085-.674ZM13.5,9.483l-1.179-.911A2.843,2.843,0,0,0,8.841,4.914a1.43,1.43,0,0,1,.279.846,1.4,1.4,0,0,1-.046.3L6.866,4.353A4.27,4.27,0,0,1,9.6,3.36a4.318,4.318,0,0,1,4.32,4.32,4.218,4.218,0,0,1-.417,1.8Z" transform="translate(0 0)" fill="#fff" opacity="0.2"/>
</svg>
